PathFileType	4	(X/Y/Z)	./resultDataOpenSim/trcMotMarkerGrf/sub09/qtm-02-05.trc
DataRate	CameraRate	NumFrames	NumMarkers	Units	OrigDataRate	OrigDataStartFrame	OrigNumFrames
250.000000	250.000000	14	24	m	250.000000	118	470
Frame#	Time	L.Toe.Tip			R.Toe.Tip			L.Ankle.Lat			R.Ankle.Lat			L.Ankle.Med			R.Ankle.Med			L.Heel			R.Heel			L.Knee.Lat			R.Knee.Lat			L.Knee.Med			R.Knee.Med			L.Thigh.Upper			R.Thigh.Upper			L.ASIS			R.ASIS			V.Sacral			L.Acromium			R.Acromium			C7			L.Elbow			R.Elbow			L.Wrist.Lat			R.Wrist.Lat
		X1	Y1	Z1	X2	Y2	Z2	X3	Y3	Z3	X4	Y4	Z4	X5	Y5	Z5	X6	Y6	Z6	X7	Y7	Z7	X8	Y8	Z8	X9	Y9	Z9	X10	Y10	Z10	X11	Y11	Z11	X12	Y12	Z12	X13	Y13	Z13	X14	Y14	Z14	X15	Y15	Z15	X16	Y16	Z16	X17	Y17	Z17	X18	Y18	Z18	X19	Y19	Z19	X20	Y20	Z20	X21	Y21	Z21	X22	Y22	Z22	X23	Y23	Z23	X24	Y24	Z24

118	0.468	-0.43375042	0.063237417	-0.0031830676	-0.67478691	0.039090129	0.10734163	-0.57627796	0.11441362	-0.035423338	-0.82303373	0.057110908	0.13785203	-0.54928339	0.12628466	0.058277248	-0.81058904	0.094945527	0.046903561	-0.64974434	0.081513927	0.013769113	-0.89048741	0.036600032	0.086405888	-0.47236472	0.51906953	-0.061216347	-0.70347385	0.5001108	0.20375626	-0.47508092	0.51406774	0.063734242	-0.7190215	0.4927681	0.076049544	-0.64950226	0.89878694	-0.10819448	-0.68346523	0.90619367	0.26240816	-0.5835637	0.98601273	-0.045167559	-0.57872494	0.98818849	0.19476895	-0.75011706	1.0433143	0.071925063	-0.5957476	1.4384315	-0.092135676	-0.59694878	1.4470833	0.23652586	-0.66085368	1.4932018	0.074667369	-0.75348194	1.1073128	-0.13996561	-0.72115051	1.1001288	0.32080452	-0.65024476	0.86907295	-0.18809409	-0.53795076	0.89308192	0.3366298
119	0.472	-0.41369199	0.063415421	-0.0027323765	-0.67476331	0.039124884	0.10741542	-0.55756047	0.11065308	-0.035038129	-0.82313309	0.057187096	0.13766888	-0.5310264	0.12337861	0.05870844	-0.81041855	0.09496388	0.0467291	-0.62965695	0.075716405	0.01442378	-0.89068647	0.036785269	0.085911523	-0.46526257	0.5184559	-0.061005072	-0.70168388	0.49978748	0.20386904	-0.46786974	0.51333991	0.064046498	-0.7173159	0.49249897	0.076058381	-0.64305817	0.89794775	-0.10820881	-0.67784593	0.90538208	0.26239216	-0.57723636	0.98518598	-0.045078969	-0.57268526	0.98712897	0.19497837	-0.74517429	1.0423184	0.069914201	-0.58968813	1.4374875	-0.092199085	-0.5909803	1.4462666	0.23649744	-0.65487233	1.4923109	0.074598855	-0.74872943	1.1071165	-0.14000107	-0.71452606	1.0990087	0.32099816	-0.64748991	0.86831946	-0.18901628	-0.53023939	0.89287725	0.33660149
120	0.476	-0.39370565	0.063784395	-0.0023028628	-0.67479195	0.039143869	0.10747568	-0.53889741	0.10706285	-0.034702826	-0.8232227	0.057271962	0.13748929	-0.51269407	0.12064086	0.059097149	-0.8102449	0.094992544	0.046531623	-0.60946174	0.070118034	0.015217878	-0.89080969	0.036967084	0.085469369	-0.45824463	0.51768152	-0.060822024	-0.69979235	0.49945799	0.20400204	-0.46057848	0.51249223	0.064435145	-0.71548563	0.4921705	0.076142016	-0.63650187	0.89700794	-0.10821365	-0.67228813	0.9044792	0.26237954	-0.57089337	0.98424852	-0.045006627	-0.56661792	0.98599218	0.19517046	-0.73967325	1.0412342	0.068696877	-0.58363265	1.4364923	-0.092291338	-0.58500665	1.445357	0.23646322	-0.64887069	1.4913588	0.074524157	-0.74394708	1.1068421	-0.14002046	-0.70788656	1.0977981	0.32117391	-0.64442257	0.86754037	-0.18986246	-0.52253034	0.89257862	0.33657858
121	0.48	-0.37380729	0.064354089	-0.0018905496	-0.67484266	0.039121495	0.10751735	-0.52025324	0.10366766	-0.034382946	-0.82328281	0.057358653	0.13730459	-0.49433628	0.11808583	0.05946854	-0.81005242	0.09502833	0.046334873	-0.58937051	0.064857177	0.015803641	-0.89084751	0.03713626	0.085095856	-0.45130978	0.51674785	-0.060687081	-0.69771797	0.49915635	0.20421305	-0.45329543	0.51150981	0.064829204	-0.71354643	0.49178657	0.076263163	-0.63005481	0.8959441	-0.10821866	-0.66677224	0.90349518	0.26236242	-0.56452624	0.98319761	-0.044943885	-0.56051818	0.98477805	0.19534284	-0.73353749	1.0401082	0.068491622	-0.57759884	1.4354462	-0.092405746	-0.57900088	1.4443461	0.23641135	-0.64282209	1.490334	0.074442145	-0.73911255	1.1064869	-0.1399979	-0.70123645	1.0965015	0.3213371	-0.64103561	0.86672169	-0.19063131	-0.51482135	0.89218012	0.33655389
122	0.484	-0.35401313	0.065135723	-0.0014812561	-0.6748928	0.039059396	0.10754502	-0.50157794	0.10049055	-0.034060765	-0.82330012	0.057446795	0.13710336	-0.47601146	0.11574869	0.059837808	-0.80983783	0.095066842	0.046152859	-0.56951912	0.060023982	0.015990775	-0.8908382	0.037303294	0.084765874	-0.44446195	0.5156377	-0.060620123	-0.69532828	0.49894154	0.20457726	-0.44620934	0.51035895	0.065103389	-0.71149375	0.49135876	0.076389818	-0.62379558	0.89474602	-0.10821819	-0.66129484	0.90244188	0.26233843	-0.55812986	0.98203014	-0.044890512	-0.55439129	0.98347884	0.19549363	-0.72698957	1.0389777	0.068966593	-0.57158746	1.4343316	-0.092527303	-0.57295956	1.4432327	0.23633843	-0.63673349	1.4892238	0.074353344	-0.73418471	1.1060432	-0.13989307	-0.69458022	1.0951204	0.32148975	-0.63749294	0.86584275	-0.19137604	-0.50711086	0.89168211	0.33652196
123	0.488	-0.33433684	0.066143341	-0.001053208	-0.67493206	0.038975641	0.1075651	-0.48286994	0.097550304	-0.033744299	-0.82327317	0.057541986	0.13688249	-0.45775283	0.11366242	0.060202488	-0.80960154	0.095106363	0.045986765	-0.54980124	0.055544144	0.015956322	-0.8908175	0.037482475	0.084453172	-0.43770658	0.51434484	-0.060623608	-0.69259153	0.49881446	0.20508396	-0.43942897	0.50902706	0.065188319	-0.70931954	0.49089455	0.076501757	-0.61764817	0.89342722	-0.10819022	-0.65586385	0.90132473	0.26230929	-0.55170559	0.98074888	-0.044849253	-0.54825633	0.9820935	0.19562989	-0.72032174	1.0378213	0.069626532	-0.56557068	1.433128	-0.092649656	-0.5669045	1.4420268	0.23625298	-0.63062192	1.4880242	0.074253284	-0.7291489	1.105506	-0.13970748	-0.68791864	1.0936526	0.32162819	-0.63401655	0.86487978	-0.19216982	-0.49940027	0.89109079	0.33648598
124	0.492	-0.31479306	0.067390442	-0.00058304112	-0.67494836	0.038890007	0.10757837	-0.46417543	0.094862747	-0.03344834	-0.82320399	0.057662173	0.13665494	-0.43957171	0.11184404	0.060568849	-0.8093398	0.095151435	0.045828017	-0.53002788	0.051288074	0.016019933	-0.89079848	0.037686862	0.084148095	-0.4310392	0.51289177	-0.060678668	-0.68972307	0.49862678	0.20556613	-0.4329101	0.50753556	0.06511072	-0.70701325	0.4903922	0.076602368	-0.61150427	0.89200854	-0.10812909	-0.65044803	0.90015684	0.26227894	-0.54526017	0.97936268	-0.044817626	-0.54215296	0.98063549	0.19576683	-0.71380368	1.0365952	0.070138409	-0.55951544	1.4318309	-0.092782127	-0.56086323	1.4407405	0.23616463	-0.62450266	1.4867407	0.074133136	-0.7240452	1.1048803	-0.13953571	-0.68125079	1.0920961	0.32174965	-0.63069743	0.86382493	-0.19305084	-0.49169101	0.89041294	0.33644978
125	0.496	-0.29540427	0.068887026	-5.0807478e-05	-0.67493683	0.038814631	0.10758368	-0.44554725	0.092434769	-0.033169612	-0.82308719	0.057841383	0.13644381	-0.42148793	0.1103061	0.06097745	-0.80904542	0.095208923	0.045666606	-0.51015528	0.047222543	0.016332142	-0.89077986	0.037925713	0.083855951	-0.42444494	0.51129947	-0.060770263	-0.68701346	0.49819359	0.20583909	-0.42654291	0.50591388	0.064933753	-0.70454898	0.48985249	0.076719352	-0.60528815	0.89049903	-0.10806467	-0.64498641	0.89896082	0.26225231	-0.53879574	0.97788251	-0.044785904	-0.53611285	0.97912267	0.19591494	-0.70765128	1.0352999	0.070492052	-0.55341128	1.430449	-0.092931242	-0.55483533	1.4393754	0.2360723	-0.61837985	1.4853845	0.073990298	-0.71892848	1.1041725	-0.13948565	-0.67457649	1.090453	0.32185857	-0.627474	0.86268877	-0.19400663	-0.48398557	0.88965324	0.33641189
126	0.5	-0.27620215	0.070638554	0.0005646724	-0.67490747	0.038746383	0.10759011	-0.42701252	0.090259991	-0.032878089	-0.82291892	0.058100889	0.13626642	-0.40353981	0.10906098	0.061479215	-0.8087184	0.095282257	0.045500203	-0.49027091	0.043412479	0.016820044	-0.89075672	0.038198202	0.08358989	-0.41790562	0.50956465	-0.060899465	-0.68447498	0.49751789	0.20591965	-0.42022467	0.50417406	0.064707206	-0.7018991	0.48927907	0.076882342	-0.59897799	0.88889595	-0.10803052	-0.63945367	0.89774754	0.26223339	-0.53230741	0.97631712	-0.04474207	-0.53011509	0.97756826	0.1960699	-0.70188885	1.0339575	0.070818201	-0.5472686	1.4289926	-0.093088509	-0.5487849	1.4379277	0.23597158	-0.61224478	1.4839654	0.073832293	-0.71381027	1.1033794	-0.13955969	-0.66789397	1.0887326	0.32196344	-0.62425243	0.86148878	-0.19500811	-0.47629179	0.88881399	0.3363682
127	0.504	-0.25721991	0.072645359	0.0012926251	-0.6748678	0.03867061	0.10761694	-0.40857563	0.088332486	-0.032530579	-0.82272276	0.058400773	0.136121	-0.38576671	0.10809584	0.062082055	-0.80837453	0.095372439	0.045337006	-0.47048085	0.039949796	0.017321399	-0.89072411	0.038495978	0.083356657	-0.41142249	0.50767993	-0.061077947	-0.68186071	0.49675973	0.20596934	-0.41386021	0.50231186	0.064473445	-0.69907241	0.48867155	0.077081721	-0.59261382	0.88719507	-0.10802316	-0.63387087	0.89650819	0.26222416	-0.52579655	0.97466681	-0.044678742	-0.52410817	0.97597879	0.19622004	-0.69616966	1.0325315	0.071046288	-0.54112144	1.4274756	-0.093246747	-0.5426908	1.4364003	0.23586549	-0.60608709	1.4824879	0.073672031	-0.70866435	1.1024955	-0.13968708	-0.66119585	1.0869435	0.32206747	-0.62097716	0.86024429	-0.19604227	-0.46861805	0.88789464	0.33631996
128	0.508	-0.23848641	0.074903862	0.0021674726	-0.67481343	0.038583613	0.10767772	-0.39024223	0.086663108	-0.03209024	-0.82254354	0.058663765	0.13599109	-0.36819636	0.10737067	0.062749888	-0.80803574	0.09548117	0.045189109	-0.45086611	0.036926171	0.017741933	-0.89067756	0.038813367	0.083146392	-0.40502145	0.50565674	-0.061312556	-0.67898898	0.49602059	0.20607714	-0.40739305	0.50032705	0.064261886	-0.69611794	0.48803106	0.07727104	-0.58625619	0.8853964	-0.10801551	-0.6282688	0.89523317	0.26222412	-0.51927709	0.97292527	-0.044594495	-0.51806978	0.97435527	0.19636366	-0.68999483	1.0309402	0.070941019	-0.5350349	1.4259165	-0.093417568	-0.53657684	1.4348003	0.23576004	-0.59990585	1.4809498	0.073520722	-0.70346528	1.1015216	-0.13981966	-0.65447526	1.085087	0.32216905	-0.61762102	0.85896248	-0.19710482	-0.46096711	0.88689228	0.33627614
129	0.512	-0.22003335	0.077399429	0.0032163541	-0.67474272	0.038502754	0.10775666	-0.37203237	0.085272628	-0.031531943	-0.82239995	0.058862279	0.13586478	-0.35084782	0.10685573	0.063456371	-0.80771046	0.095610482	0.04506188	-0.43151548	0.034447996	0.018101461	-0.89061488	0.039151284	0.082939943	-0.39870848	0.50352702	-0.061596735	-0.67586206	0.4952829	0.20623015	-0.40088432	0.49823963	0.064051524	-0.69308839	0.48736411	0.077420779	-0.57993148	0.88350547	-0.10798811	-0.6226691	0.8939247	0.26223245	-0.51275696	0.9710919	-0.044487487	-0.51200492	0.97269933	0.19651161	-0.68327231	1.0291616	0.070485601	-0.52904942	1.4243301	-0.093622931	-0.53046621	1.4331331	0.23566042	-0.59370658	1.4793465	0.073380378	-0.69820062	1.1004631	-0.13994889	-0.64773459	1.0831611	0.32227025	-0.61416067	0.8576212	-0.19816862	-0.45333721	0.88580565	0.33624299
130	0.516	-0.20191151	0.080081384	0.0044407533	-0.67466872	0.038448456	0.10780301	-0.35399006	0.084175335	-0.030848966	-0.82226986	0.059032315	0.13574075	-0.33373768	0.10654461	0.064201969	-0.80738735	0.095763924	0.044948599	-0.41255672	0.032586232	0.018485866	-0.890537	0.039513761	0.082720883	-0.39244557	0.50133374	-0.061927659	-0.67255925	0.49449294	0.20640288	-0.39449145	0.49607374	0.063786968	-0.69001303	0.48667833	0.077536771	-0.57362384	0.88153368	-0.1079303	-0.61707788	0.89258768	0.26224755	-0.5062132	0.96917906	-0.04435489	-0.50591602	0.97101488	0.19667539	-0.67637287	1.0272585	0.06995356	-0.52309745	1.4227125	-0.093869617	-0.52434983	1.4314015	0.23556958	-0.58749549	1.4776903	0.073248938	-0.69286528	1.0993277	-0.14008288	-0.6409797	1.0811657	0.32237541	-0.61057694	0.85619216	-0.19919115	-0.4457242	0.8846365	0.33621937
131	0.52	-0.18419934	0.082846434	0.0058074571	-0.67461049	0.038425534	0.10777326	-0.33621089	0.083370315	-0.030071098	-0.82212696	0.059209693	0.13561616	-0.31689332	0.10644558	0.064978418	-0.80704609	0.09594954	0.0448341	-0.39409446	0.03124683	0.018993405	-0.89044661	0.039903206	0.082477158	-0.3861822	0.49911288	-0.06231764	-0.66914778	0.49362657	0.20658118	-0.38835003	0.49382059	0.063436597	-0.68687885	0.48598133	0.07763368	-0.56729789	0.87949533	-0.1078353	-0.6114891	0.89122338	0.26226372	-0.49960723	0.9672059	-0.044196124	-0.49981267	0.96930326	0.19685959	-0.66961919	1.0252879	0.069549339	-0.51704598	1.4210397	-0.094140833	-0.51821348	1.4296085	0.23548667	-0.58127979	1.4760082	0.073127243	-0.68746146	1.098121	-0.14023151	-0.63421076	1.0791047	0.32248453	-0.60687365	0.85468197	-0.200162	-0.43812761	0.88338637	0.33620087
